<?xml version="1.0" encoding="utf-8"?>
<!-- Generator: Adobe Illustrator 23.1.0, SVG Export Plug-In . SVG Version: 6.00 Build 0)  -->
<svg version="1.1" id="Layer_1" xmlns="http://www.w3.org/2000/svg" xmlns:xlink="http://www.w3.org/1999/xlink" x="0px" y="0px"
	 viewBox="0 0 26 24" style="enable-background:new 0 0 26 24;" xml:space="preserve">
<style type="text/css">
	.st0{fill:#1D1D1B;}
</style>
<path class="st0" d="M24.1,1.78c-1.02-1.03-3.1-1.96-5.42-1.75C17.14,0.17,14.96,0.9,13,3.44c-1.96-2.55-4.14-3.27-5.68-3.41
	C5-0.18,2.93,0.76,1.9,1.78C0.37,3.3-0.27,5.61,0.1,8.28c0.6,4.36,4.23,10.74,12.62,15.56L13,24l0.28-0.16
	c8.39-4.82,12.02-11.2,12.62-15.56C26.26,5.61,25.63,3.3,24.1,1.78z M23.84,8C23.33,11.74,20.2,17.23,13,21.62
	C5.8,17.23,2.67,11.73,2.16,8.01C1.88,5.99,2.32,4.28,3.38,3.22C3.94,2.65,5.2,2.05,6.65,2.05c0.15,0,0.31,0.01,0.48,0.03
	c1.73,0.16,3.32,1.24,4.59,3.12l1.27,1.89l1.3-1.89c1.27-1.89,2.86-2.97,4.59-3.13c1.73-0.16,3.19,0.6,3.74,1.15
	C23.68,4.28,24.12,5.98,23.84,8z"/>
</svg>
