<?xml version="1.0" encoding="utf-8"?>
<!-- Generator: Adobe Illustrator 23.1.0, SVG Export Plug-In . SVG Version: 6.00 Build 0)  -->
<svg version="1.1" id="Layer_1" xmlns="http://www.w3.org/2000/svg" xmlns:xlink="http://www.w3.org/1999/xlink" x="0px" y="0px"
	 viewBox="0 0 24 24" style="enable-background:new 0 0 24 24;" xml:space="preserve">
<path d="M12.97,11.42c1.23-0.41,2.12-1.56,2.12-2.92c0-1.71-1.39-3.1-3.1-3.1c-1.71,0-3.1,1.39-3.1,3.1c0,1.37,0.89,2.52,2.12,2.92
	c-2.38,0.18-4.26,2.15-4.26,4.57v1.2h10.46v-1.2C17.23,13.57,15.35,11.6,12.97,11.42z M12-0.01C5.38-0.01-0.01,5.38-0.01,12
	S5.38,24.01,12,24.01S24.01,18.62,24.01,12S18.62-0.01,12-0.01z M12,22.01C6.48,22.01,1.99,17.52,1.99,12S6.48,1.99,12,1.99
	S22.01,6.48,22.01,12S17.52,22.01,12,22.01z"/>
</svg>
