<?xml version="1.0" encoding="utf-8"?>
<!-- Generator: Adobe Illustrator 23.1.0, SVG Export Plug-In . SVG Version: 6.00 Build 0)  -->
<svg height="36px" version="1.1" id="Layer_1" xmlns="http://www.w3.org/2000/svg" xmlns:xlink="http://www.w3.org/1999/xlink" x="0px" y="0px"
	 viewBox="0 0 22.7 35" style="enable-background:new 0 0 22.7 35;" xml:space="preserve">
<g>
	<path d="M6.6,5.8c0-2.6,2.1-4.7,4.7-4.7S16,3.2,16,5.8v2h1.1v-2c0-3.2-2.6-5.8-5.8-5.8S5.5,2.6,5.5,5.8v2h1.1V5.8z"/>
	<path d="M21.7,7.8h-4.5v1.1h-1.1V7.8H16H6.6v1.1H5.5V7.8H1c-0.6,0-1,0.5-1,1V34c0,0.6,0.5,1,1,1h20.6c0.6,0,1-0.5,1-1V8.8
		C22.7,8.3,22.2,7.8,21.7,7.8z"/>
</g>
</svg>
